Coordinates
version=1
nRows=10
nColumns=22
inDegrees=yes

Units are S.I. units (second, meters, Newtons, ...)
If the header above contains a line with 'inDegrees', this indicates whether rotational values are in degrees (yes) or radians (no).

endheader
time	pelvis_tilt	pelvis_list	pelvis_rotation	pelvis_tx	pelvis_ty	pelvis_tz	hip_flexion_r	hip_adduction_r	hip_rotation_r	knee_angle_r	ankle_angle_r	subtalar_angle_r	hip_flexion_l	hip_adduction_l	hip_rotation_l	knee_angle_l	ankle_angle_l	subtalar_angle_l	lumbar_extension	lumbar_bending	lumbar_rotation
      1.22000000	      7.40043569	     -7.27255284	      8.08836703	      0.92177313	      0.93250822	      0.01528879	      2.16373035	     11.75253003	    -13.46346382	    -10.54114530	      2.96397264	     -4.04691980	     21.44706394	    -12.49947613	     -0.07494873	    -66.29638059	      7.55704292	      0.67108726	    -16.78152501	      7.67389606	     -2.28351707
      1.23000000	      7.36899048	     -7.31864284	      8.02336560	      0.91910785	      0.93223089	      0.01515113	      2.40252765	     11.75385114	    -13.44912949	    -10.57039984	      2.81681319	     -4.06556913	     21.01575473	    -12.57530853	     -0.14326308	    -67.49802966	      7.36793346	      0.82087227	    -16.64090481	      7.73041908	     -2.30746195
      1.24000000	      7.35179554	     -7.35927869	      7.95018133	      0.91637103	      0.93194720	      0.01498484	      2.65522853	     11.74155124	    -13.45870156	    -10.64912841	      2.68774946	     -4.08421373	     20.47708812	    -12.65719027	     -0.24124540	    -68.57536940	      7.13892201	      0.83976536	    -16.51616943	      7.78218755	     -2.34277804
      1.25000000	      7.30700192	     -7.41569368	      7.87092122	      0.91353610	      0.93158023	      0.01480647	      2.96254838	     11.73836694	    -13.44199134	    -10.75597812	      2.53757525	     -4.11076778	     19.90099564	    -12.75864621	     -0.35009257	    -69.54158981	      6.84407633	      0.81633765	    -16.35930322	      7.85015764	     -2.41232019
      1.26000000	      7.22487818	     -7.48029064	      7.78736128	      0.91060311	      0.93111874	      0.01461169	      3.33636280	     11.73412741	    -13.40143696	    -10.89693941	      2.38684757	     -4.15032837	     19.30070801	    -12.87131119	     -0.47693837	    -70.39147075	      6.51288783	      0.72821771	    -16.15831316	      7.92364848	     -2.52411380
      1.27000000	      7.17133487	     -7.54791227	      7.70808373	      0.90757630	      0.93067033	      0.01437001	      3.71178089	     11.72593318	    -13.42023015	    -11.08642003	      2.24710558	     -4.18039916	     18.59880895	    -12.99616399	     -0.62259620	    -71.11064759	      6.18264454	      0.64504604	    -15.99344398	      8.00814253	     -2.64299627
      1.28000000	      7.09331282	     -7.61770948	      7.63280070	      0.90446023	      0.93015955	      0.01410666	      4.13382904	     11.71302737	    -13.42150115	    -11.29987591	      2.10112820	     -4.21467220	     17.86596104	    -13.12737899	     -0.78652089	    -71.70471392	      5.82022779	      0.54162586	    -15.79405286	      8.09296356	     -2.80359255
      1.29000000	      6.97350940	     -7.68041394	      7.55358816	      0.90119174	      0.92954600	      0.01382426	      4.62538812	     11.68180097	    -13.41320062	    -11.54110635	      1.97472424	     -4.25716862	     17.13799831	    -13.24638441	     -0.97110932	    -72.19303318	      5.44819013	      0.41083072	    -15.55433955	      8.16683340	     -3.01058946
      1.30000000	      6.89286628	     -7.76080772	      7.49555439	      0.89780727	      0.92894730	      0.01347963	      5.10206636	     11.66382092	    -13.46811391	    -11.81084808	      1.83187227	     -4.28100331	     16.32646588	    -13.38561402	     -1.14943708	    -72.56037143	      5.11795684	      0.37556281	    -15.35722967	      8.27293509	     -3.23159277
      1.31000000	      6.77978763	     -7.82254279	      7.44496964	      0.89428479	      0.92827188	      0.01311288	      5.63260206	     11.61660763	    -13.52254841	    -12.10189463	      1.70027269	     -4.29969957	     15.51817770	    -13.49955114	     -1.34523490	    -72.81465797	      4.73004707	      0.36606504	    -15.12171604	      8.35135045	     -3.49459679
